<svg width="400" height="70" viewBox="0 0 400 70" fill="none" xmlns="http://www.w3.org/2000/svg">
<path d="M267.819 68.9231C265.287 66.1538 264.713 62.6573 266.266 59.5105C266.812 58.4196 268.015 56.8531 268.63 56.4476L269.022 56.2098L270.001 57.2168L269.218 58.042C267.595 59.8042 266.91 62.0979 267.343 64.3077C267.637 65.7622 268.267 67.049 269.232 68.0979L269.987 68.9371L269.456 69.4266C269.162 69.7063 268.882 69.9301 268.826 69.9301C268.784 69.9301 268.323 69.4825 267.819 68.9231Z" fill="white"/>
<path d="M281.585 69.4406L281.123 68.965L281.697 68.3357C283.138 66.7692 283.837 65.1189 283.837 63.3007C283.837 61.958 283.669 61.0769 283.18 60.0559C282.774 59.1888 281.683 57.6923 281.375 57.5664C281.039 57.4406 281.123 57.1469 281.655 56.6434L282.144 56.1678L282.522 56.5175C284.732 58.4755 285.796 60.9371 285.6 63.6364C285.516 64.8811 285.012 66.4336 284.369 67.4545C283.921 68.1538 282.34 69.9301 282.144 69.9301C282.102 69.9301 281.851 69.7063 281.585 69.4406Z" fill="white"/>
<path d="M7.39117 68.2517H23.563L23.535 69.5804L15.4631 69.6224L7.39117 69.6503V68.2517Z" fill="white"/>
<path d="M31.4531 68.2517H39.5669V69.6503H31.4531V68.2517Z" fill="white"/>
<path d="M55.445 68.993V68.3217H63.5309L63.5589 69.5804L59.5019 69.6224L55.431 69.6504L55.445 68.993Z" fill="white"/>
<path d="M103.359 68.2517H111.473V69.6503H103.359V68.2517Z" fill="white"/>
<path d="M135.507 69.5524C135.479 69.4825 135.451 69.1888 135.451 68.8811L135.465 68.3217H143.579V69.5804L139.564 69.6224C137.353 69.6364 135.535 69.6084 135.507 69.5524Z" fill="white"/>
<path d="M167.431 68.2517H175.545V69.6503H167.431V68.2517Z" fill="white"/>
<path d="M191.493 68.2517H199.606V69.6503H191.493V68.2517Z" fill="white"/>
<path d="M215.47 68.951L215.484 68.2517L219.541 68.2797L223.598 68.3217V69.5804L219.527 69.6224L215.47 69.6503V68.951Z" fill="white"/>
<path d="M247.45 68.2517H255.564V69.6503H247.45V68.2517Z" fill="white"/>
<path d="M271.512 68.2517H279.626V69.6503H271.512V68.2517Z" fill="white"/>
<path d="M295.504 69.4825C295.476 69.3846 295.462 69.0769 295.476 68.8112L295.504 68.3217L327.61 68.2517V69.6503H311.592C298.89 69.6503 295.546 69.6084 295.504 69.4825Z" fill="white"/>
<path d="M343.474 68.2517H351.532V69.6503H343.474V68.2517Z" fill="white"/>
<path d="M375.524 68.993V68.3217H383.61L383.638 69.5804L379.581 69.6224L375.51 69.6504L375.524 68.993Z" fill="white"/>
<path d="M24.878 68.014L25.5635 67.9161C26.3049 67.8182 26.9764 67.3846 26.9764 67.007C26.9764 66.8811 26.7946 66.5594 26.5567 66.2937C26.0671 65.7203 26.0251 65.2168 26.4308 64.6993C26.6547 64.4056 26.8365 64.3357 27.3122 64.3357C27.7878 64.3357 27.9837 64.4196 28.3194 64.7692C28.6971 65.1608 28.7251 65.2727 28.7251 66.2797C28.7251 67.2448 28.6831 67.4266 28.3194 67.9441C27.8298 68.6713 26.6826 69.2587 25.6334 69.3427L24.878 69.3986V68.014Z" fill="white"/>
<path d="M4.48136 66.6154C4.10364 65.7063 3.06842 63.3287 2.21506 61.3287C1.34772 59.3287 0.550317 57.4825 0.452391 57.2448L0.256538 56.7832H2.0332L2.81661 58.6434C3.25028 59.6503 4.32747 62.1539 5.2228 64.1958C6.11813 66.2378 6.88755 67.986 6.92951 68.0839C6.98547 68.2098 6.76164 68.2517 6.09015 68.2517H5.19482L4.48136 66.6154Z" fill="white"/>
<path d="M40.0286 68.014C40.0706 67.8741 40.6861 66.4476 41.3856 64.8252C42.099 63.2168 43.1622 60.7552 43.7638 59.3706L44.841 56.8531L45.7223 56.8112C46.5057 56.7692 46.5897 56.7972 46.5197 57.021C46.4777 57.1608 45.9601 58.3776 45.3726 59.7203C44.4772 61.7483 42.6866 65.8741 41.8612 67.8042C41.6654 68.2378 41.6374 68.2517 40.812 68.2517C40.0566 68.2517 39.9586 68.2238 40.0286 68.014Z" fill="white"/>
<path d="M47.9606 68.1538C47.9606 68.0979 49.0658 65.5245 50.3948 62.4476L52.829 56.8531L53.7103 56.8112C54.4797 56.7692 54.5636 56.7972 54.4937 57.021C54.4517 57.1608 53.8642 58.5315 53.1927 60.0699C52.5212 61.6084 51.458 64.0699 50.8285 65.5245L49.6813 68.1818L48.814 68.2238C48.3523 68.2517 47.9606 68.2098 47.9606 68.1538Z" fill="white"/>
<path d="M64.2723 67.4545C64.5941 66.7273 65.3076 65.0629 67.9516 58.951C68.3852 57.958 68.7909 57.049 68.8469 56.965C68.9588 56.7972 70.6236 56.6853 70.6236 56.8531C70.6236 56.8811 70.4697 57.2448 70.2878 57.6504C70.1059 58.0559 69.4345 59.5944 68.8049 61.049C68.1754 62.5175 67.35 64.4056 66.9863 65.2448C66.6086 66.0979 66.1889 67.1049 66.035 67.4825L65.7552 68.1818L63.9086 68.2657L64.2723 67.4545Z" fill="white"/>
<path d="M96.1264 67.9441C96.1683 67.7622 97.0217 65.7343 98.0289 63.4266C99.0502 61.1189 100.099 58.6853 100.393 58.014L100.911 56.7832H101.792C102.268 56.7832 102.659 56.8112 102.659 56.8392C102.659 56.8671 102.366 57.5385 102.016 58.3357C101.372 59.8182 98.5186 66.3776 98.0149 67.5944L97.7212 68.2517H96.8958C96.0984 68.2517 96.0564 68.2378 96.1264 67.9441Z" fill="white"/>
<path d="M112.074 68.014C112.116 67.8741 112.914 66 113.851 63.8462C114.788 61.6923 115.865 59.2448 116.229 58.3916L116.887 56.8531L117.74 56.8112C118.216 56.7832 118.607 56.8252 118.607 56.8951C118.607 56.979 118.426 57.4266 118.202 57.9161C117.978 58.4056 117.278 60.014 116.649 61.4685C116.019 62.9371 115.418 64.3217 115.306 64.5455C115.208 64.7832 114.816 65.6923 114.439 66.5734L113.753 68.1818L112.872 68.2238C112.088 68.2657 112.004 68.2378 112.074 68.014Z" fill="white"/>
<path d="M127.98 68.1538C127.98 68.0979 128.54 66.7552 129.225 65.1748C129.925 63.5944 131.016 61.0769 131.66 59.5804L132.835 56.8531L133.716 56.8112C134.499 56.7692 134.583 56.7972 134.513 57.021C134.471 57.1608 133.856 58.6014 133.156 60.2098C132.443 61.8322 131.38 64.2797 130.792 65.6643L129.715 68.1818L128.848 68.2238C128.372 68.2517 127.98 68.2098 127.98 68.1538Z" fill="white"/>
<path d="M144.04 68.1678C143.998 68.1259 144.082 67.8322 144.25 67.5105C144.53 66.9091 147.915 59.1049 148.447 57.8322C148.601 57.4545 148.797 57.0489 148.867 56.965C148.993 56.7972 150.643 56.6993 150.643 56.8531C150.643 56.8811 150.489 57.2448 150.308 57.6504C150.126 58.0559 149.65 59.1469 149.244 60.0699C148.853 60.993 148.405 62 148.265 62.3077C147.929 63.0489 145.957 67.6923 145.845 68.014C145.775 68.1958 145.593 68.2517 144.936 68.2517C144.488 68.2517 144.082 68.2238 144.04 68.1678Z" fill="white"/>
<path d="M160.058 68.014C160.1 67.8741 161.023 65.7203 162.115 63.2168C163.206 60.7133 164.269 58.2657 164.479 57.7622L164.857 56.8531L165.752 56.8112C166.535 56.7692 166.619 56.7972 166.549 57.021C166.479 57.2448 164.535 61.7902 164.213 62.4476C164.143 62.6014 163.542 63.958 162.898 65.4545L161.723 68.1818L160.856 68.2238C160.072 68.2657 159.988 68.2378 160.058 68.014Z" fill="white"/>
<path d="M176.104 68.0699C176.104 67.972 176.244 67.5804 176.426 67.1888C176.608 66.8112 177.699 64.3217 178.846 61.6503L180.93 56.7832H181.812C182.287 56.7832 182.679 56.8112 182.679 56.8392C182.679 56.8671 182.511 57.2587 182.315 57.7063C181.882 58.6853 179.448 64.2797 178.454 66.6154L177.741 68.2517H176.93C176.342 68.2517 176.104 68.1958 176.104 68.0699Z" fill="white"/>
<path d="M184.204 67.6643C184.358 67.3287 185.421 64.8671 186.582 62.1678C187.743 59.4825 188.751 57.1748 188.807 57.0629C188.974 56.7832 190.723 56.6713 190.611 56.951C190.429 57.3846 188.946 60.8112 188.779 61.1888C188.625 61.5245 187.016 65.2168 186.107 67.3427C186.009 67.5804 185.897 67.8741 185.841 68.014C185.785 68.2098 185.603 68.2517 184.862 68.2517H183.952L184.204 67.6643Z" fill="white"/>
<path d="M200.068 68.014C200.11 67.8741 200.432 67.1049 200.796 66.2937C201.481 64.7413 203.677 59.6643 204.433 57.9021L204.88 56.8531L205.762 56.8112C206.811 56.7552 206.839 56.4755 205.468 59.5804C204.908 60.8531 203.845 63.3007 203.104 65.035L201.747 68.1818L200.865 68.2238C200.082 68.2657 199.998 68.2378 200.068 68.014Z" fill="white"/>
<path d="M208 68.1538C208 68.0979 208.979 65.8182 210.154 63.0769C211.344 60.3497 212.449 57.8182 212.603 57.4545L212.882 56.7832H213.736C214.197 56.7832 214.575 56.8392 214.575 56.9091C214.575 56.979 214.393 57.4406 214.169 57.9301C213.54 59.3007 211.525 63.9301 210.168 67.1329L209.721 68.1818L208.853 68.2238C208.392 68.2517 208 68.2238 208 68.1538Z" fill="white"/>
<path d="M224.088 68.0979C224.088 68.014 224.494 67.035 224.983 65.9021C225.473 64.7692 226.522 62.3636 227.292 60.5594C228.075 58.7552 228.76 57.1748 228.816 57.0629C228.984 56.7832 230.733 56.6713 230.621 56.951C230.579 57.0489 230.006 58.3916 229.334 59.9301C227.683 63.7063 225.977 67.7063 225.865 68.014C225.795 68.2098 225.613 68.2517 224.927 68.2517C224.424 68.2517 224.088 68.1958 224.088 68.0979Z" fill="white"/>
<path d="M240.078 68.014C240.12 67.8741 240.735 66.4476 241.435 64.8252C242.148 63.2168 243.212 60.7552 243.813 59.3706L244.89 56.8531L245.772 56.8112C246.555 56.7692 246.639 56.7972 246.569 57.021C246.527 57.1608 246.009 58.3776 245.422 59.7203C244.527 61.7483 242.736 65.8741 241.911 67.8042C241.715 68.2378 241.687 68.2517 240.861 68.2517C240.106 68.2517 240.008 68.2238 240.078 68.014Z" fill="white"/>
<path d="M256.124 68.0979C256.124 68.028 256.781 66.4336 257.593 64.5734C258.404 62.7133 259.495 60.1958 260.013 58.993L260.95 56.7832H261.832C262.307 56.7832 262.699 56.8112 262.699 56.8392C262.699 56.8811 262.111 58.2797 261.86 58.8112C261.72 59.1049 260.964 60.8252 258.908 65.5664L257.747 68.2517H256.935C256.46 68.2517 256.124 68.1958 256.124 68.0979Z" fill="white"/>
<path d="M288.062 68.014C288.104 67.8741 288.719 66.4476 289.419 64.8252C290.132 63.2168 291.195 60.7552 291.797 59.3706L292.874 56.8531L293.756 56.8112C294.791 56.7552 294.777 56.6014 293.826 58.7413C293.154 60.2657 290.972 65.3007 290.188 67.1329L289.741 68.1818L288.859 68.2238C288.076 68.2657 287.992 68.2378 288.062 68.014Z" fill="white"/>
<path d="M328.072 68.014C328.114 67.8741 328.729 66.4476 329.429 64.8252C330.142 63.2168 331.205 60.7552 331.807 59.3706L332.884 56.8531L333.765 56.8112C334.549 56.7692 334.633 56.7972 334.563 57.021C334.521 57.1608 333.905 58.6014 333.206 60.2098C332.492 61.8322 331.429 64.2797 330.828 65.6643L329.75 68.1818L328.869 68.2238C328.086 68.2657 328.002 68.2378 328.072 68.014Z" fill="white"/>
<path d="M336.144 68.042C336.144 67.9301 336.214 67.7203 336.284 67.5804C336.423 67.3566 338.088 63.5105 340.033 58.993L340.97 56.7832H341.865C342.523 56.7832 342.733 56.8252 342.677 56.965C342.537 57.2867 341.208 60.3357 340.131 62.7972C339.543 64.1399 338.774 65.9161 338.424 66.7552L337.78 68.2517H336.955C336.325 68.2517 336.144 68.2098 336.144 68.042Z" fill="white"/>
<path d="M352.092 68.1538C352.092 68.0979 352.651 66.7552 353.351 65.1748C354.036 63.5944 355.127 61.0769 355.771 59.5804L356.946 56.8531L357.827 56.8112C358.611 56.7692 358.695 56.7972 358.625 57.021C358.555 57.2448 357.589 59.5385 357.268 60.2098C357.086 60.6014 356.093 62.8671 355.351 64.6154C355.001 65.4266 354.61 66.3357 354.47 66.6434C354.33 66.951 354.12 67.4406 354.008 67.7343C353.784 68.2518 353.784 68.2517 352.945 68.2517C352.469 68.2517 352.092 68.2098 352.092 68.1538Z" fill="white"/>
<path d="M368.04 68.1538C368.04 68.0979 369.019 65.8182 370.194 63.0769C371.383 60.3497 372.488 57.8182 372.642 57.4545L372.922 56.7832H373.789C374.811 56.7832 374.852 56.4755 373.454 59.6504C371.677 63.7343 370.67 66.042 370.208 67.1329L369.76 68.1818L368.893 68.2238C368.431 68.2517 368.04 68.2238 368.04 68.1538Z" fill="white"/>
<path d="M384.351 67.4545C384.547 67.007 385.624 64.5035 386.744 61.8881C387.877 59.2727 388.856 57.0489 388.926 56.965C389.052 56.7972 390.703 56.6993 390.703 56.8531C390.703 56.8811 390.549 57.2448 390.367 57.6504C390.185 58.0559 389.709 59.1469 389.304 60.0699C388.912 60.993 388.478 61.972 388.366 62.2378C388.254 62.5035 388.073 62.9231 387.975 63.1469C387.877 63.3846 387.471 64.3217 387.065 65.2448C386.1 67.4545 385.988 67.7203 385.89 68.014C385.834 68.2098 385.652 68.2517 384.897 68.2517H383.988L384.351 67.4545Z" fill="white"/>
<path d="M299.855 51.8601C298.19 50.042 297.477 48.2378 297.505 45.9441C297.519 44.3916 297.812 43.2587 298.54 42C299.072 41.049 300.065 39.8322 300.61 39.4406L301.044 39.1329L302.037 40.1538L301.24 40.993C299.981 42.3636 299.211 44.2238 299.211 45.8881C299.211 46.7413 299.533 48.1958 299.869 48.9371C300.163 49.5944 301.184 51.021 301.646 51.4545L302.009 51.8042L301.492 52.3357C301.212 52.6294 300.932 52.8671 300.876 52.8671C300.82 52.8671 300.359 52.4196 299.855 51.8601Z" fill="white"/>
<path d="M337.655 52.3496L337.137 51.8322L337.962 50.965C340.62 48.1119 340.578 43.9021 337.864 40.979L337.137 40.1818L338.242 39.1049L338.956 39.7902C342.509 43.2727 342.607 48.3077 339.193 51.958C338.732 52.4615 338.312 52.8671 338.256 52.8671C338.214 52.8671 337.934 52.6294 337.655 52.3496Z" fill="white"/>
<path d="M23.4651 52.5594C23.4511 52.5315 23.4231 52.2238 23.4091 51.8601L23.3811 51.1888H31.4531V52.5874H27.4661C25.2697 52.5874 23.4651 52.5734 23.4651 52.5594Z" fill="white"/>
<path d="M271.512 51.1888H279.626V52.5874H271.512V51.1888Z" fill="white"/>
<path d="M303.422 51.1888H319.636V52.5874H303.45L303.422 51.1888Z" fill="white"/>
<path d="M0.0187179 50.951C0.0606863 50.8112 1.16585 48.2518 2.46687 45.2448L4.84508 39.7902L5.71243 39.7483C6.49584 39.7063 6.57978 39.7343 6.50983 39.958C6.46786 40.0979 5.95025 41.3147 5.36269 42.6573C4.46737 44.6853 2.67672 48.8112 1.85134 50.7413C1.65549 51.1748 1.62751 51.1888 0.802128 51.1888C0.0466966 51.1888 -0.0512295 51.1608 0.0187179 50.951Z" fill="white"/>
<path d="M16.0926 50.979C16.1206 50.8671 17.2118 48.2797 18.5128 45.2448L20.891 39.7343L21.7723 39.7203C22.248 39.7203 22.6397 39.7483 22.6397 39.7762C22.6397 39.8042 22.3459 40.4755 21.9962 41.2727C21.4506 42.5175 17.9952 50.5035 17.7853 51.021C17.7434 51.1329 17.4216 51.1888 16.876 51.1888C16.2045 51.1888 16.0506 51.1469 16.0926 50.979Z" fill="white"/>
<path d="M32.0546 50.951C32.0966 50.8112 32.796 49.1608 33.6214 47.2727C34.4468 45.3846 35.51 42.9371 35.9996 41.8182L36.867 39.7902L37.7203 39.7482C38.6856 39.7063 38.7276 39.7482 38.3219 40.5315C38.182 40.8112 37.8322 41.5804 37.5664 42.2378C37.1188 43.3147 34.7825 48.7133 34.3349 49.7203C34.223 49.958 34.0411 50.3776 33.9152 50.6713L33.7054 51.1888H32.838C32.0826 51.1888 31.9846 51.1608 32.0546 50.951Z" fill="white"/>
<path d="M47.9606 51.0909C47.9606 51.021 48.5202 49.6923 49.2057 48.1119C49.9052 46.5315 50.9963 44.014 51.6399 42.5175L52.815 39.7902L53.6823 39.7483C54.144 39.7203 54.5357 39.7622 54.5357 39.8182C54.5357 39.9301 53.4445 42.4615 50.6886 48.7413C50.3528 49.5105 49.9891 50.3776 49.8632 50.6713L49.6533 51.1888H48.814C48.3383 51.1888 47.9606 51.1469 47.9606 51.0909Z" fill="white"/>
<path d="M56.0745 51.049C56.0745 50.979 56.8299 49.1608 57.7533 47.035C58.6766 44.8951 59.7677 42.3776 60.1734 41.4406L60.9009 39.7203H61.7822C62.2579 39.7203 62.6496 39.7483 62.6496 39.7762C62.6496 39.8042 62.3558 40.4755 62.0061 41.2727C61.4325 42.5734 58.7185 48.8252 58.0051 50.5315L57.7113 51.1888H56.8999C56.4382 51.1888 56.0745 51.1329 56.0745 51.049Z" fill="white"/>
<path d="M72.0645 50.951C72.1064 50.8112 72.722 49.3846 73.4214 47.7622C74.1349 46.1538 75.1981 43.6923 75.7997 42.3077L76.8768 39.7902L77.7582 39.7483C78.5416 39.7063 78.6255 39.7343 78.5556 39.958C78.5136 40.0979 77.996 41.3147 77.4084 42.6573C75.8836 46.1538 74.7085 48.8531 74.1909 50.0699L73.7432 51.1189L72.8619 51.1608C72.0785 51.2028 71.9945 51.1748 72.0645 50.951Z" fill="white"/>
<path d="M103.918 51.1469C103.918 51.1189 104.072 50.7972 104.254 50.4056C104.436 50.028 105.485 47.6504 106.576 45.1049C107.668 42.5734 108.661 40.3217 108.759 40.1119C108.941 39.7482 109.025 39.7203 109.794 39.7203C110.256 39.7203 110.633 39.7483 110.633 39.7762C110.633 39.8042 109.948 41.3986 109.109 43.3147C107.542 46.9091 105.989 50.5175 105.835 50.951C105.765 51.1469 105.569 51.1888 104.828 51.1888C104.324 51.1888 103.918 51.1748 103.918 51.1469Z" fill="white"/>
<path d="M120.048 50.951C120.09 50.8112 120.888 48.9371 121.825 46.7832C122.762 44.6294 123.839 42.1818 124.203 41.3287L124.861 39.7902L125.742 39.7483C126.525 39.7063 126.609 39.7343 126.539 39.958C126.497 40.0979 125.798 41.7483 124.973 43.6364C124.147 45.5245 123.07 47.972 122.594 49.0909L121.713 51.1189L120.846 51.1608C120.062 51.2028 119.978 51.1748 120.048 50.951Z" fill="white"/>
<path d="M137.451 47.8042C138.263 45.9301 139.34 43.4266 139.857 42.2378C140.361 41.049 140.837 39.986 140.893 39.9021C140.991 39.7343 142.669 39.6224 142.669 39.7762C142.669 39.8042 142.376 40.4755 142.026 41.2727C141.298 42.951 138.99 48.2657 137.815 51.021C137.773 51.1329 137.437 51.1888 136.864 51.1888H135.982L137.451 47.8042Z" fill="white"/>
<path d="M152.084 50.951C152.126 50.8112 153.231 48.2518 154.532 45.2448L156.897 39.7902L157.764 39.7483C158.226 39.7203 158.617 39.7483 158.617 39.8182C158.617 39.9021 156.883 43.9441 155.819 46.3636C155.134 47.9161 154.141 50.1958 153.945 50.6713L153.735 51.1888H152.868C152.112 51.1888 152.014 51.1608 152.084 50.951Z" fill="white"/>
<path d="M167.99 51.0909C167.99 51.035 168.55 49.6923 169.249 48.1119C169.935 46.5315 171.026 44.014 171.669 42.5175L172.845 39.7902L173.712 39.7483C174.202 39.7203 174.565 39.7622 174.565 39.8462C174.565 39.9161 174.383 40.3776 174.16 40.8671C173.936 41.3566 173.474 42.4056 173.124 43.2168C172.775 44.028 172.033 45.7203 171.488 46.993C170.928 48.2657 170.298 49.7063 170.103 50.2098L169.725 51.1189L168.858 51.1608C168.382 51.1888 167.99 51.1469 167.99 51.0909Z" fill="white"/>
<path d="M183.938 51.1469C183.938 51.1189 184.12 50.7273 184.33 50.2657C184.554 49.8182 185.673 47.2587 186.82 44.5874L188.904 39.7203H189.8C190.457 39.7203 190.667 39.7622 190.611 39.9021C190.569 39.986 189.996 41.3287 189.324 42.8671C187.785 46.3776 185.967 50.6154 185.855 50.951C185.785 51.1469 185.589 51.1888 184.848 51.1888C184.344 51.1888 183.938 51.1748 183.938 51.1469Z" fill="white"/>
<path d="M192.052 51.0909C192.052 51.021 192.71 49.4685 193.521 47.6224C194.318 45.7762 195.424 43.2587 195.941 42.028L196.906 39.7902L197.774 39.7483C198.235 39.7203 198.627 39.7622 198.627 39.8322C198.627 39.9301 197.886 41.6503 194.85 48.6014C194.472 49.4545 194.081 50.3776 193.955 50.6713L193.745 51.1888H192.905C192.43 51.1888 192.052 51.1469 192.052 51.0909Z" fill="white"/>
<path d="M208.042 50.951C208.084 50.8112 209.189 48.2517 210.49 45.2448L212.854 39.7902L213.736 39.7482C214.785 39.6923 214.813 39.3846 213.414 42.5874C211.637 46.6713 210.63 48.979 210.168 50.0699L209.721 51.1189L208.839 51.1608C208.056 51.2028 207.972 51.1748 208.042 50.951Z" fill="white"/>
<path d="M216.016 51.0909C216.212 50.7133 218.38 45.7203 220.003 41.9301L220.94 39.7203H221.822C222.297 39.7203 222.689 39.7483 222.689 39.7762C222.689 39.8182 222.507 40.2378 222.283 40.7273C222.06 41.2168 221.724 41.986 221.528 42.4476C221.192 43.2587 219.625 46.8811 218.996 48.3217C218.828 48.7133 218.464 49.5105 218.212 50.1119L217.737 51.1888H216.855C216.366 51.1888 215.988 51.1469 216.016 51.0909Z" fill="white"/>
<path d="M232.104 50.951C232.146 50.8112 232.845 49.1608 233.671 47.2727C234.496 45.3846 235.559 42.9371 236.049 41.8182L236.916 39.7902L237.798 39.7483C238.581 39.7063 238.665 39.7343 238.595 39.958C238.553 40.0979 237.952 41.5385 237.238 43.1469C236.525 44.7692 235.671 46.7413 235.322 47.5525C234.972 48.3636 234.58 49.2727 234.44 49.5804C234.3 49.8881 234.09 50.3776 233.979 50.6713L233.755 51.1888H232.887C232.132 51.1888 232.034 51.1608 232.104 50.951Z" fill="white"/>
<path d="M248.01 51.0909C248.01 51.035 248.667 49.4685 249.479 47.6224C250.276 45.7762 251.367 43.2587 251.899 42.028L252.864 39.7902L253.732 39.7483C254.221 39.7203 254.585 39.7622 254.585 39.8462C254.585 39.9161 254.403 40.3776 254.179 40.8671C253.956 41.3566 253.494 42.4056 253.144 43.2168C252.794 44.028 252.053 45.7203 251.507 46.993C250.948 48.2657 250.318 49.7063 250.122 50.2098L249.745 51.1189L248.877 51.1608C248.402 51.1888 248.01 51.1469 248.01 51.0909Z" fill="white"/>
<path d="M263.958 51.1469C263.958 51.1189 264.112 50.7972 264.294 50.4056C264.476 50.028 265.287 48.1818 266.098 46.2937C266.91 44.4056 267.889 42.1818 268.253 41.3287L268.938 39.7902L269.806 39.7482C270.281 39.7203 270.673 39.7343 270.673 39.7622C270.673 39.7902 270.295 40.6993 269.82 41.7622C268.281 45.2587 266.728 48.8531 266.266 50L265.805 51.1189L264.881 51.1608C264.378 51.1888 263.958 51.1748 263.958 51.1469Z" fill="white"/>
<path d="M344.23 50.6434C344.355 50.3497 345.475 47.7622 346.706 44.9091L348.944 39.7343L349.839 39.7203C350.497 39.7203 350.707 39.7622 350.651 39.9021C350.469 40.3357 348.986 43.7483 348.818 44.1259C348.356 45.1329 346.342 49.8042 346.104 50.4336L345.824 51.1189L343.978 51.2028L344.23 50.6434Z" fill="white"/>
<path d="M360.108 50.951C360.15 50.8112 360.737 49.4406 361.409 47.9021C362.08 46.3636 363.143 43.9161 363.773 42.4476L364.92 39.7902L365.801 39.7483C366.837 39.6923 366.851 39.4685 365.661 42.1678C365.186 43.2448 364.248 45.4126 363.563 46.993C362.878 48.5734 362.192 50.1538 362.024 50.5315L361.73 51.1888H360.877C360.136 51.1888 360.038 51.1608 360.108 50.951Z" fill="white"/>
<path d="M377.566 47.6643C378.42 45.7203 379.525 43.1329 380.043 41.9301L380.98 39.7203H381.861C382.337 39.7203 382.729 39.7483 382.729 39.7762C382.729 39.8042 382.533 40.2657 382.295 40.7972C382.057 41.3147 381.218 43.2587 380.42 45.1049C379.637 46.9511 378.798 48.8671 378.574 49.3706C378.35 49.8741 378.084 50.4895 377.986 50.7413C377.804 51.1748 377.776 51.1888 376.923 51.1888H376.042L377.566 47.6643Z" fill="white"/>
<path d="M392.143 50.951C392.185 50.8112 392.801 49.3846 393.5 47.7622C394.214 46.1538 395.277 43.6923 395.879 42.3077L396.956 39.7902L397.809 39.7483C398.313 39.7203 398.677 39.7622 398.677 39.8462C398.677 39.9161 398.495 40.3776 398.257 40.8671C398.033 41.3566 397.781 41.9161 397.711 42.1119C397.627 42.2937 396.732 44.4056 395.697 46.7832L393.822 51.1189L392.941 51.1608C392.157 51.2028 392.074 51.1748 392.143 50.951Z" fill="white"/>
<path d="M23.3671 34.1259H39.5669V35.5245H23.3951L23.3671 34.1259Z" fill="white"/>
<path d="M79.4369 34.1259L91.4958 34.1538L103.569 34.1958V35.4545L91.4958 35.4965L79.4369 35.5245V34.1259Z" fill="white"/>
<path d="M127.421 34.1259L135.479 34.1538L143.551 34.1958L143.579 35.4545L135.493 35.4965L127.421 35.5245V34.1259Z" fill="white"/>
<path d="M159.457 34.1259H175.545V35.5245H159.457V34.1259Z" fill="white"/>
<path d="M239.476 34.1259H255.564V35.5245H239.476V34.1259Z" fill="white"/>
<path d="M319.496 34.1259L331.541 34.1538L343.6 34.1958L343.628 35.4545L331.555 35.4965L319.496 35.5245V34.1259Z" fill="white"/>
<path d="M367.48 34.1259L375.538 34.1538L383.61 34.1958L383.638 35.4545L375.552 35.4965L367.48 35.5245V34.1259Z" fill="white"/>
<path d="M7.99271 33.8881C8.03468 33.7483 9.13985 31.1888 10.4409 28.1818L12.8051 22.7273L13.6724 22.6853C14.1341 22.6573 14.5258 22.6993 14.5258 22.7692C14.5258 22.8252 13.8403 24.4615 13.0009 26.3776C12.1616 28.2937 11.0704 30.8112 10.5668 31.958L9.67145 34.0559L8.79011 34.0979C8.0067 34.1399 7.92277 34.1119 7.99271 33.8881Z" fill="white"/>
<path d="M57.4595 30.6713C58.2848 28.7552 59.404 26.1818 59.9356 24.9371L60.9009 22.6573H61.7822C62.2579 22.6573 62.6496 22.6853 62.6496 22.7133C62.6496 22.7413 62.2439 23.6783 61.7402 24.8112C61.2366 25.9301 60.8309 26.8811 60.8309 26.9231C60.8309 26.951 60.677 27.3147 60.4952 27.7203C60.1734 28.4336 59.1522 30.7832 58.1729 33.049L57.6973 34.1259H55.9486L57.4595 30.6713Z" fill="white"/>
<path d="M64.1744 33.5385C65.2656 31.0489 67.5459 25.7762 68.1474 24.3776L68.8749 22.6573H69.7702C70.4277 22.6573 70.6375 22.6993 70.5816 22.8392C70.5396 22.9231 70.1479 23.8322 69.7142 24.8252C67.9935 28.7692 66.7765 31.5944 66.2728 32.7972L65.7412 34.0559L63.9086 34.1399L64.1744 33.5385Z" fill="white"/>
<path d="M104.058 33.986C104.058 33.9021 105.136 31.3706 106.437 28.3636C107.752 25.3566 108.815 22.8392 108.815 22.7692C108.815 22.7133 109.22 22.6573 109.724 22.6573C110.228 22.6573 110.633 22.6853 110.633 22.7133C110.633 22.7413 110.48 23.1049 110.298 23.5105C110.116 23.9301 109.626 25.021 109.234 25.9441C108.829 26.8671 108.395 27.8741 108.255 28.1818C107.808 29.1888 105.919 33.6364 105.835 33.8881C105.765 34.0839 105.583 34.1259 104.898 34.1259C104.422 34.1259 104.058 34.0699 104.058 33.986Z" fill="white"/>
<path d="M112.074 33.8881C112.116 33.7483 112.606 32.6014 113.166 31.3287C113.711 30.0559 114.788 27.6084 115.53 25.8741L116.887 22.7273L117.754 22.6853C118.244 22.6573 118.607 22.6993 118.607 22.7832C118.607 22.8531 118.384 23.3986 118.118 23.986C117.838 24.5734 117.502 25.3566 117.362 25.7063C117.222 26.0699 116.341 28.0979 115.418 30.2098L113.753 34.0559L112.872 34.0979C112.088 34.1399 112.004 34.1119 112.074 33.8881Z" fill="white"/>
<path d="M189.016 33.6084C188.751 32.951 185.477 25.3566 184.834 23.8741C184.568 23.2727 184.358 22.7552 184.358 22.7273C184.358 22.6853 184.75 22.6573 185.239 22.6573H186.107L186.764 24.2378C187.128 25.0909 188.219 27.6364 189.184 29.8601C190.15 32.0979 190.933 33.958 190.933 34.028C190.933 34.0839 190.555 34.1259 190.08 34.1259C189.24 34.1259 189.24 34.1259 189.016 33.6084Z" fill="white"/>
<path d="M200.068 33.8881C200.11 33.7483 201.159 31.3147 202.39 28.4615C203.635 25.6224 204.699 23.1469 204.783 22.979C204.894 22.6993 205.02 22.6573 205.776 22.6573C206.531 22.6573 206.629 22.6853 206.559 22.9091C206.503 23.1049 204.852 26.9231 204.153 28.5035C203.663 29.5804 203.496 29.9441 202.81 31.5385C202.418 32.4615 202.013 33.4266 201.901 33.6783C201.705 34.1119 201.677 34.1259 200.852 34.1259C200.096 34.1259 199.998 34.0979 200.068 33.8881Z" fill="white"/>
<path d="M216.17 33.6783C216.282 33.4266 217.345 30.979 218.534 28.2517C219.723 25.5245 220.731 23.1469 220.786 22.979C220.884 22.6853 220.982 22.6573 221.794 22.6573C222.283 22.6573 222.689 22.6853 222.689 22.7273C222.689 22.7552 222.535 23.1189 222.339 23.5245C222.004 24.2797 219.751 29.4545 218.464 32.4895L217.765 34.1259H215.974L216.17 33.6783Z" fill="white"/>
<path d="M224.088 33.986C224.088 33.9021 224.843 32.0979 225.767 29.958C226.69 27.8322 227.781 25.3147 228.187 24.3776L228.914 22.6573H229.81C230.467 22.6573 230.677 22.6993 230.621 22.8392C230.579 22.9231 230.187 23.8322 229.754 24.8252C227.781 29.3287 226.676 31.9021 226.256 32.9371L225.795 34.0559L224.941 34.0979C224.396 34.1259 224.088 34.0839 224.088 33.986Z" fill="white"/>
<path d="M269.05 33.6084C268.63 32.6294 266.77 28.3077 265.581 25.5524C264.923 24.028 264.378 22.7552 264.378 22.7273C264.378 22.6853 264.755 22.6573 265.231 22.6573H266.07L266.364 23.3287C266.518 23.6923 266.756 24.2378 266.896 24.5455C267.036 24.8531 267.343 25.5804 267.595 26.1538C267.847 26.7273 268.127 27.3986 268.239 27.6224C268.938 29.2028 270.953 33.9161 270.953 34.014C270.953 34.0699 270.575 34.1259 270.099 34.1259C269.26 34.1259 269.26 34.1259 269.05 33.6084Z" fill="white"/>
<path d="M304.08 34.042C304.038 34 304.15 33.6504 304.332 33.2727C304.527 32.8811 305.045 31.7063 305.507 30.6573C307.843 25.2168 308.808 22.993 308.906 22.8392C309.004 22.6713 310.683 22.5594 310.683 22.7133C310.683 22.7413 310.179 23.9021 309.564 25.3007C308.948 26.6993 308.444 27.8741 308.444 27.9021C308.444 27.9441 308.291 28.2937 308.109 28.6993C307.787 29.4266 306.486 32.3916 306.136 33.2168C306.038 33.4545 305.926 33.7483 305.87 33.8881C305.814 34.0839 305.633 34.1259 304.975 34.1259C304.527 34.1259 304.122 34.0979 304.08 34.042Z" fill="white"/>
<path d="M344.118 33.972C344.118 33.8881 344.453 33.049 344.859 32.1119C345.279 31.1888 346.356 28.6713 347.279 26.5455L348.944 22.6573H349.839C350.497 22.6573 350.707 22.6993 350.651 22.8392C350.609 22.9231 350.217 23.8322 349.783 24.8252C347.811 29.3287 346.706 31.9021 346.286 32.9371L345.824 34.0559L344.971 34.0979C344.397 34.1259 344.118 34.0839 344.118 33.972Z" fill="white"/>
<path d="M352.134 33.8881C352.176 33.7483 352.665 32.6014 353.225 31.3287C353.77 30.0559 354.848 27.6084 355.589 25.8741L356.946 22.7273L357.813 22.6853C358.275 22.6573 358.667 22.6993 358.667 22.7552C358.667 22.8112 358.009 24.3776 357.198 26.2238C356.4 28.0699 355.309 30.5874 354.778 31.8182L353.812 34.0559L352.931 34.0979C352.148 34.1399 352.064 34.1119 352.134 33.8881Z" fill="white"/>
<path d="M397.18 33.8881C397.082 33.5804 393.822 26 393.053 24.2657C392.745 23.5804 392.465 22.9231 392.423 22.8392C392.367 22.6993 392.591 22.6573 393.263 22.6573H394.172L394.62 23.7483C395.501 25.8601 397.865 31.3147 398.663 33.0629C398.9 33.5944 399.096 34.042 399.096 34.0699C399.096 34.0979 398.691 34.1259 398.187 34.1259C397.431 34.1259 397.25 34.0839 397.18 33.8881Z" fill="white"/>
<path d="M49.3036 23.6783L48.0865 22.7273L49.1078 22.6853C49.6673 22.6573 50.2549 22.6853 50.4088 22.7273C50.5627 22.7832 51.0663 23.2308 51.5139 23.7203L52.3393 24.6154H50.5067L49.3036 23.6783Z" fill="white"/>
<path d="M153.385 23.6783L152.168 22.7273L153.189 22.6853C153.749 22.6573 154.337 22.6853 154.49 22.7273C154.644 22.7832 155.148 23.2308 155.596 23.7203L156.421 24.6154H154.588L153.385 23.6783Z" fill="white"/>
<path d="M211.987 17.986C210.252 16.1538 209.539 14.5874 209.441 12.3776C209.315 9.83217 210.043 7.95804 211.861 6.02797L212.882 4.96503L213.414 5.48252L213.932 6.01399L213.372 6.6014C211.567 8.48951 210.868 10.6294 211.274 12.979C211.525 14.4615 212.099 15.6503 213.064 16.7972L213.834 17.7063L213.428 18.2238C213.19 18.5035 212.938 18.7413 212.854 18.7413C212.771 18.7413 212.379 18.4056 211.987 17.986Z" fill="white"/>
<path d="M225.585 18.2378L225.053 17.7343L225.627 17.1608C228.523 14.2797 228.607 9.86014 225.809 6.85315L225.081 6.05594L225.641 5.51049L226.214 4.96503L227.152 5.97203C229.922 8.90909 230.397 12.8531 228.397 16.1958C227.949 16.9371 226.396 18.7413 226.214 18.7413C226.158 18.7413 225.879 18.5035 225.585 18.2378Z" fill="white"/>
<path d="M15.4211 17.8042L15.4351 17.1329L47.5409 17.0629V18.4615H15.3931L15.4211 17.8042Z" fill="white"/>
<path d="M55.5009 18.4336C55.5009 18.4056 55.473 18.0979 55.459 17.7343L55.431 17.0629H63.5729L63.5449 18.3916L59.5299 18.4336C57.3196 18.4476 55.5149 18.4476 55.5009 18.4336Z" fill="white"/>
<path d="M71.4629 17.0629H111.473V18.4615H71.4629V17.0629Z" fill="white"/>
<path d="M119.447 17.0629H151.483V18.4615H119.447V17.0629Z" fill="white"/>
<path d="M159.457 17.0629L171.502 17.0909L183.561 17.1329L183.589 18.3916L171.516 18.4336L159.457 18.4615V17.0629Z" fill="white"/>
<path d="M215.484 17.1329H223.598V18.3916L219.527 18.4336L215.456 18.4615L215.484 17.1329Z" fill="white"/>
<path d="M231.502 17.0629L263.58 17.1329L263.608 18.3916L231.502 18.4615V17.0629Z" fill="white"/>
<path d="M311.522 17.0629H351.532V18.4615H311.522V17.0629Z" fill="white"/>
<path d="M383.54 18.3636C383.512 18.2937 383.484 18 383.484 17.6923L383.498 17.1329L387.527 17.0909L391.542 17.0629V18.4615H387.569C385.373 18.4615 383.568 18.4196 383.54 18.3636Z" fill="white"/>
<path d="M360.066 16.979C360.066 16.9371 360.639 15.5664 361.353 13.9441C362.052 12.3077 363.143 9.79021 363.773 8.32168L364.92 5.66434L365.801 5.62238C366.585 5.58042 366.669 5.60839 366.599 5.83217C366.557 5.97203 366.039 7.18881 365.452 8.53147C364.556 10.5594 362.766 14.6853 361.94 16.6154C361.744 17.049 361.716 17.0629 360.905 17.0629C360.443 17.0629 360.066 17.021 360.066 16.979Z" fill="white"/>
<path d="M378.21 12.0699C379.399 9.31469 380.504 6.72727 380.672 6.33566L380.98 5.59441H381.875C382.533 5.59441 382.743 5.63636 382.687 5.77622C382.645 5.86014 382.295 6.67133 381.917 7.55245C380.406 11.035 378.35 15.7622 378.084 16.4056L377.79 17.0629H376.042L378.21 12.0699Z" fill="white"/>
<path d="M215.443 0.741259L215.484 0.0699301H223.57L223.598 1.32867L219.499 1.37063L215.401 1.3986L215.443 0.741259Z" fill="white"/>
<path d="M367.48 0H383.652L383.624 1.32867L375.552 1.37063L367.48 1.3986V0Z" fill="white"/>
</svg>
